<svg width="1200" height="300" viewBox="0 0 1200 300" xmlns="http://www.w3.org/2000/svg">
  <defs>
    <linearGradient id="sunsetSky" x1="0" y1="0" x2="0" y2="1">
      <stop offset="0%" stop-color="#6d5dfc"/>
      <stop offset="45%" stop-color="#ff9a76"/>
      <stop offset="100%" stop-color="#ffd166"/>
    </linearGradient>
  </defs>

  <rect width="1200" height="300" fill="url(#sunsetSky)"/>

  <circle cx="1030" cy="185" r="42" fill="#ff7b54"/>

  <path d="M0 230 L160 170 L310 230 L480 165 L650 230 L830 175 L1010 230 L1200 165 L1200 300 L0 300 Z" fill="#3d405b"/>
  <path d="M0 252 L220 205 L420 252 L620 198 L840 252 L1040 205 L1200 248 L1200 300 L0 300 Z" fill="#2f3e46"/>

  <rect y="252" width="1200" height="48" fill="#457b9d" opacity="0.65"/>

  <path d="M890 115 Q900 105 910 115" stroke="#374151" stroke-width="3" fill="none"/>
  <path d="M930 130 Q940 120 950 130" stroke="#374151" stroke-width="3" fill="none"/>
  <path d="M980 110 Q990 100 1000 110" stroke="#374151" stroke-width="3" fill="none"/>

  <text x="600"
        y="130"
        text-anchor="middle"
        font-family="Segoe UI, Inter, Helvetica, Arial, sans-serif"
        font-size="24"
        font-weight="600"
        fill="#111827">
    Learning with purpose. Building with intention. Growing through every project.
  </text>
</svg>
